# xmcd
# Track frame offsets:
# 150
# 14038
# 35829
# 60598
# 81481
# 104070
# 125151
# 144034
# 163243
# 190849
# 205817
# 223190
# 242247
#
# Disc length: 3466 seconds
# Revision: 0
# Processed by: cddbd v1.5PL3 Copyright (c) Steve Scherf et al.
# Submitted via: VisiTrax 2.9.9.202 - For more info visit www.synapsa.com
#
DISCID=cd0d880d
DTITLE=Chris Rea - Stony Road
DYEAR=2002
DGENRE=Blues
TTITLE0=Changing Times
TTITLE1=Easy Rider
TTITLE2=Stony Road
TTITLE3=Dancing The Blues Away
TTITLE4=Burning Feet
TTITLE5=Mississippi
TTITLE6=Slow Dance
TTITLE7=When the Good Lord Talked To Jesus
TTITLE8=Heading For The City
TTITLE9=So Lonely
TTITLE10=Someday My Peace Will Come
TTITLE11=The Hustler
TTITLE12=Give That Girl A Diamond
EXTD=YEAR: 2002
EXTT0=
EXTT1=
EXTT2=
EXTT3=
EXTT4=
EXTT5=
EXTT6=
EXTT7=
EXTT8=
EXTT9=
EXTT10=
EXTT11=
EXTT12=
PLAYORDER=
